<svg aria-hidden="true" style="position: absolute; width: 0; height: 0; overflow: hidden;" version="1.1" xmlns="http://www.w3.org/2000/svg" xmlns:xlink="http://www.w3.org/1999/xlink">
<defs>
<symbol id="icon-about" viewBox="0 0 32 32">
<path d="M0 17.778h14.222v-17.778h-14.222v17.778zM0 32h14.222v-10.667h-14.222v10.667zM17.778 32h14.222v-17.778h-14.222v17.778zM17.778 0v10.667h14.222v-10.667h-14.222z"></path>
</symbol>

<symbol id="icon-arrow-h" viewBox="0 0 55 32">
<path d="M2.825 18.556c-2.798 2.022-3.324 5.795-1.174 8.427s6.161 3.126 8.959 1.104l20.266-14.646c2.798-2.022 3.324-5.795 1.174-8.427s-6.161-3.126-8.959-1.104l-20.266 14.646z"></path>
<path d="M43.385 28.068c2.801 2.019 6.811 1.52 8.958-1.115s1.616-6.407-1.185-8.426l-20.286-14.622c-2.801-2.019-6.811-1.52-8.958 1.115s-1.616 6.407 1.185 8.426l20.286 14.622z"></path>
</symbol>

<symbol id="icon-APay" viewBox="0 0 78 32">
<path fill="#fff" style="fill: var(--color1, #fff)" d="M15.649 6.716c-1.859 0-3.359 1.125-4.328 1.125-1.016 0-2.375-1.063-3.984-1.063-3.063 0-6.172 2.547-6.172 7.313 0 2.984 1.156 6.125 2.578 8.172 1.203 1.703 2.281 3.109 3.813 3.109 1.516 0 2.188-1 4.078-1 1.906 0 2.344 0.969 4.016 0.969s2.781-1.516 3.828-3.016c1.156-1.734 1.656-3.422 1.672-3.5-0.094-0.031-3.281-1.328-3.281-4.984 0-3.156 2.5-4.563 2.641-4.672-1.641-2.391-4.156-2.453-4.859-2.453zM14.79 4.701c0.75-0.922 1.281-2.172 1.281-3.438 0-0.172-0.016-0.344-0.047-0.484-1.219 0.047-2.719 0.813-3.609 1.859-0.688 0.797-1.344 2.063-1.344 3.328 0 0.188 0.031 0.391 0.047 0.453 0.078 0.016 0.203 0.031 0.328 0.031 1.109 0 2.516-0.75 3.344-1.75zM27.291 2.545v22.547h4.031v-7.391h4.891c4.563 0 7.75-3.063 7.75-7.531 0-4.547-3.078-7.625-7.578-7.625h-9.094zM31.322 5.92h4c2.906 0 4.547 1.484 4.547 4.25 0 2.688-1.688 4.188-4.563 4.188h-3.984v-8.438zM51.527 22.326c-1.719 0-2.953-0.859-2.953-2.297 0-1.391 1.016-2.172 3.187-2.313l3.859-0.25v1.359c0 1.984-1.75 3.5-4.094 3.5zM50.386 25.373c2.234 0 4.109-0.969 5.062-2.625h0.266v2.344h3.734v-11.672c0-3.625-2.469-5.766-6.859-5.766-4.063 0-6.891 1.922-7.203 4.938h3.656c0.359-1.156 1.578-1.781 3.359-1.781 2.094 0 3.219 0.938 3.219 2.609v1.438l-4.406 0.266c-4.156 0.25-6.484 2.031-6.484 5.125 0 3.125 2.359 5.125 5.656 5.125zM63.763 31.294c3.828 0 5.656-1.406 7.109-5.656l6.172-17.641h-4.094l-3.984 13.344h-0.266l-4-13.344h-4.25l6.109 17.172-0.203 0.75c-0.5 1.578-1.422 2.203-3.062 2.203-0.266 0-0.844-0.016-1.063-0.062v3.172c0.25 0.047 1.297 0.062 1.531 0.062z"></path>
</symbol>
<symbol id="icon-arrow" viewBox="0 0 56 32">
<path d="M52.175 13.444c2.798-2.022 3.324-5.795 1.174-8.427s-6.161-3.126-8.959-1.104l-20.266 14.646c-2.798 2.022-3.324 5.795-1.174 8.427s6.161 3.126 8.959 1.104l20.266-14.646z"></path>
<path d="M11.615 3.932c-2.801-2.019-6.811-1.52-8.958 1.115s-1.616 6.407 1.185 8.426l20.286 14.622c2.801 2.019 6.811 1.52 8.958-1.115s1.616-6.407-1.185-8.426l-20.286-14.622z"></path>
</symbol>
<symbol id="icon-faq" viewBox="0 0 32 32">
<path d="M16 32c-8.837 0-16-7.163-16-16s7.163-16 16-16c8.837 0 16 7.163 16 16s-7.163 16-16 16zM14.4 20.8v3.2h3.2v-3.2h-3.2zM17.6 18.168c1.286-0.388 2.39-1.224 3.111-2.357s1.011-2.487 0.817-3.816c-0.194-1.329-0.859-2.544-1.873-3.424s-2.311-1.366-3.654-1.37c-1.295-0-2.549 0.448-3.551 1.269s-1.688 1.963-1.942 3.232l3.139 0.629c0.089-0.446 0.303-0.857 0.617-1.186s0.714-0.562 1.155-0.672c0.441-0.11 0.904-0.093 1.336 0.050s0.814 0.405 1.102 0.757c0.288 0.351 0.471 0.778 0.526 1.229s-0.018 0.909-0.213 1.32c-0.194 0.411-0.502 0.758-0.886 1.001s-0.829 0.372-1.284 0.372c-0.424 0-0.831 0.169-1.131 0.469s-0.469 0.707-0.469 1.131v2.4h3.2v-1.032z"></path>
</symbol>
<symbol id="icon-GPay" viewBox="0 0 83 32">
<path fill="#fff" style="fill: var(--color1, #fff)" d="M38.603 15.563v9.435h-3.014v-23.298h7.991c2.025 0 3.752 0.671 5.165 2.012 1.444 1.341 2.167 2.979 2.167 4.912 0 1.98-0.722 3.618-2.167 4.944-1.397 1.325-3.124 1.981-5.165 1.981h-4.977v0.016zM38.603 4.569v8.125h5.040c1.193 0 2.198-0.405 2.983-1.201 0.801-0.795 1.209-1.762 1.209-2.854 0-1.076-0.408-2.027-1.209-2.823-0.785-0.827-1.774-1.232-2.983-1.232h-5.040v-0.016z"></path>
<path fill="#fff" style="fill: var(--color1, #fff)" d="M58.794 8.53c2.229 0 3.988 0.593 5.275 1.778s1.931 2.807 1.931 4.866v9.825h-2.873v-2.214h-0.126c-1.24 1.825-2.905 2.729-4.977 2.729-1.774 0-3.25-0.515-4.443-1.559s-1.79-2.339-1.79-3.899c0-1.653 0.628-2.963 1.884-3.93 1.256-0.982 2.936-1.466 5.024-1.466 1.79 0 3.266 0.327 4.412 0.982v-0.686c0-1.045-0.408-1.918-1.24-2.651s-1.806-1.092-2.92-1.092c-1.68 0-3.014 0.702-3.988 2.121l-2.653-1.653c1.46-2.105 3.627-3.15 6.484-3.15zM54.9 20.101c0 0.78 0.33 1.435 1.005 1.949 0.659 0.515 1.444 0.78 2.339 0.78 1.272 0 2.402-0.468 3.391-1.403s1.492-2.027 1.492-3.29c-0.942-0.733-2.245-1.107-3.925-1.107-1.225 0-2.245 0.296-3.061 0.873-0.832 0.608-1.24 1.341-1.24 2.199z"></path>
<path fill="#fff" style="fill: var(--color1, #fff)" d="M82.392 9.045l-10.048 22.955h-3.109l3.737-8.031-6.625-14.924h3.281l4.773 11.446h0.063l4.647-11.446h3.281z"></path>
<path fill="#4285f4" style="fill: var(--color2, #4285f4)" d="M26.613 13.661c0-0.976-0.088-1.91-0.251-2.809h-12.635v5.146l7.277 0.002c-0.295 1.712-1.245 3.172-2.7 4.145v3.339h4.332c2.529-2.325 3.978-5.762 3.978-9.823z"></path>
<path fill="#34a853" style="fill: var(--color3, #34a853)" d="M18.303 20.145c-1.206 0.808-2.759 1.28-4.575 1.28-3.509 0-6.486-2.349-7.552-5.514h-4.468v3.443c2.214 4.363 6.764 7.357 12.020 7.357 3.633 0 6.685-1.187 8.907-3.23l-4.332-3.337z"></path>
<path fill="#fabb05" style="fill: var(--color4, #fabb05)" d="M5.756 13.357c0-0.889 0.149-1.748 0.421-2.556v-3.443h-4.468c-0.915 1.804-1.43 3.841-1.43 5.999s0.517 4.195 1.43 5.999l4.468-3.443c-0.272-0.808-0.421-1.667-0.421-2.556z"></path>
<path fill="#e94235" style="fill: var(--color5, #e94235)" d="M13.728 5.287c1.983 0 3.759 0.678 5.161 2.004l3.839-3.81c-2.331-2.157-5.371-3.481-8.999-3.481-5.255 0-9.806 2.994-12.020 7.357l4.468 3.443c1.066-3.166 4.043-5.514 7.552-5.514z"></path>
</symbol>
<symbol id="icon-home" viewBox="0 0 36 32">
<path d="M30.707 30.371c0 0.432-0.17 0.846-0.473 1.152s-0.714 0.477-1.143 0.477h-22.626c-0.429 0-0.84-0.172-1.143-0.477s-0.473-0.72-0.473-1.152v-14.658h-4.848l16.69-15.29c0.298-0.273 0.685-0.424 1.088-0.424s0.79 0.151 1.088 0.424l16.69 15.29h-4.849v14.658zM12.929 14.085v9.772h9.697v-9.772h-9.697zM16.162 17.342h3.232v3.257h-3.232v-3.257z"></path>
</symbol>
<symbol id="icon-link" viewBox="0 0 28 32">
<path d="M7.444 7.353v-4.333c0-0.383 0.152-0.75 0.423-1.021s0.638-0.423 1.021-0.423h17.333c0.383 0 0.75 0.152 1.021 0.423s0.423 0.638 0.423 1.021v20.222c0 0.383-0.152 0.75-0.423 1.021s-0.638 0.423-1.021 0.423h-4.333v4.333c0 0.797-0.65 1.444-1.454 1.444h-17.313c-0.191 0.001-0.379-0.035-0.556-0.107s-0.337-0.178-0.472-0.312-0.242-0.294-0.316-0.47c-0.073-0.176-0.111-0.364-0.111-0.555l0.004-20.222c0-0.797 0.65-1.444 1.455-1.444h4.319zM4.56 10.242l-0.004 17.333h14.444v-17.333h-14.44zM10.333 7.353h11.556v14.444h2.889v-17.333h-14.444v2.889z"></path>
</symbol>
<symbol id="icon-sup" viewBox="0 0 29 32">
<path d="M27.2 32h-25.6c-0.424 0-0.831-0.169-1.131-0.469s-0.469-0.707-0.469-1.131v-20.8h28.8v20.8c0 0.424-0.169 0.831-0.469 1.131s-0.707 0.469-1.131 0.469zM28.8 6.4h-28.8v-4.8c0-0.424 0.169-0.831 0.469-1.131s0.707-0.469 1.131-0.469h25.6c0.424 0 0.831 0.169 1.131 0.469s0.469 0.707 0.469 1.131v4.8zM6.4 14.4v6.4h6.4v-6.4h-6.4zM6.4 24v3.2h16v-3.2h-16zM16 16v3.2h6.4v-3.2h-6.4z"></path>
</symbol>
<symbol id="icon-user" viewBox="0 0 32 32">
<path fill="#fff" style="fill: var(--color1, #fff)" d="M5.333 29.333c0-2.829 1.124-5.542 3.124-7.542s4.713-3.124 7.542-3.124c2.829 0 5.542 1.124 7.543 3.124s3.124 4.713 3.124 7.542h-2.667c0-2.122-0.843-4.156-2.343-5.657s-3.535-2.343-5.657-2.343c-2.122 0-4.157 0.843-5.657 2.343s-2.343 3.535-2.343 5.657h-2.667zM16 17.333c-4.42 0-8-3.58-8-8s3.58-8 8-8c4.42 0 8 3.58 8 8s-3.58 8-8 8zM16 14.666c2.947 0 5.333-2.387 5.333-5.333s-2.387-5.333-5.333-5.333c-2.947 0-5.333 2.387-5.333 5.333s2.387 5.333 5.333 5.333z"></path>
</symbol>
<symbol id="icon-logout" viewBox="0 0 30 32">
<path d="M1.6 32c-0.424 0-0.831-0.169-1.131-0.469s-0.469-0.707-0.469-1.131v-28.8c0-0.424 0.169-0.831 0.469-1.131s0.707-0.469 1.131-0.469h22.4c0.424 0 0.831 0.169 1.131 0.469s0.469 0.707 0.469 1.131v4.8h-3.2v-3.2h-19.2v25.6h19.2v-3.2h3.2v4.8c0 0.424-0.169 0.831-0.469 1.131s-0.707 0.469-1.131 0.469h-22.4zM22.4 22.4v-4.8h-11.2v-3.2h11.2v-4.8l8 6.4-8 6.4z"></path>
</symbol>
</defs>
</svg>
